<?xml version="1.0" encoding="UTF-8"?>
<svg id="Layer_1" xmlns="http://www.w3.org/2000/svg" viewBox="0 0 1080 551.81">
  <defs>
    <style>
      .cls-1 {
        fill: #7135e5;
      }
    </style>
  </defs>
  <path class="cls-1" d="M600.18,11.51h-126.71l-155.16,408.5h-9.47L150.52,11.51H8l218.51,528.79h170.97l72.86-177.35c-6.34-25.36-9.51-53.81-9.51-85.5,0-120.29,50.68-215.38,139.35-265.94Z"/>
  <path class="cls-1" d="M938.99,214.06v-6.34c0-60.15-41.17-88.6-142.52-88.6-117.12,0-164.67,41.13-164.67,158.33s44.38,158.33,161.5,158.33,158.33-19.02,161.5-88.75h-180.48v-85.35h297.68v278.62h-110.86v-114.11h-6.34c-15.81,69.73-72.82,120.45-186.82,120.45-161.46,0-259.64-104.52-259.64-269.19v-6.34c0-79.16,28.49-145.65,79.16-193.12,47.47-44.38,123.46-72.82,212.14-72.82,167.84,0,272.36,75.92,272.36,202.55v6.34h-133.01Z"/>
</svg>